#tb 0: 1/5
#media_type 0: video
#codec_id 0: rawvideo
#dimensions 0: 720x480
#sar 0: 1/1
0,        662,        662,        1,  1382400, 0xc637b893
0,        663,        663,        1,  1382400, 0xc637b893
0,        664,        664,        1,  1382400, 0xc637b893
0,        665,        665,        1,  1382400, 0xc637b893
0,        666,        666,        1,  1382400, 0xc637b893
0,        667,        667,        1,  1382400, 0xc637b893
0,        668,        668,        1,  1382400, 0xc637b893
0,        669,        669,        1,  1382400, 0xc637b893
0,        670,        670,        1,  1382400, 0xc637b893
0,        671,        671,        1,  1382400, 0xc637b893
0,        672,        672,        1,  1382400, 0xc637b893
0,        673,        673,        1,  1382400, 0xc637b893
0,        674,        674,        1,  1382400, 0xc637b893
0,        675,        675,        1,  1382400, 0xc637b893
0,        676,        676,        1,  1382400, 0xc637b893
0,        677,        677,        1,  1382400, 0xc637b893
0,        678,        678,        1,  1382400, 0xc637b893
0,        679,        679,        1,  1382400, 0xc637b893
0,        680,        680,        1,  1382400, 0xc637b893
0,        681,        681,        1,  1382400, 0xc637b893
0,        682,        682,        1,  1382400, 0xc637b893
0,        683,        683,        1,  1382400, 0xc637b893
0,        684,        684,        1,  1382400, 0xc637b893
0,        685,        685,        1,  1382400, 0xc637b893
0,        686,        686,        1,  1382400, 0xc637b893
0,        687,        687,        1,  1382400, 0x00000000
0,        688,        688,        1,  1382400, 0x00000000
0,        689,        689,        1,  1382400, 0x00000000
0,        690,        690,        1,  1382400, 0x00000000
0,        691,        691,        1,  1382400, 0x00000000
0,        692,        692,        1,  1382400, 0x00000000
0,        693,        693,        1,  1382400, 0x00000000
0,        694,        694,        1,  1382400, 0x00000000
0,        695,        695,        1,  1382400, 0x00000000
0,        696,        696,        1,  1382400, 0x00000000
0,        697,        697,        1,  1382400, 0x00000000
0,        698,        698,        1,  1382400, 0x00000000
0,        699,        699,        1,  1382400, 0x00000000
0,        700,        700,        1,  1382400, 0x00000000
0,        701,        701,        1,  1382400, 0x00000000
0,        702,        702,        1,  1382400, 0x00000000
0,        703,        703,        1,  1382400, 0x00000000
0,        704,        704,        1,  1382400, 0x00000000
0,        705,        705,        1,  1382400, 0x00000000
0,        706,        706,        1,  1382400, 0x00000000
0,        707,        707,        1,  1382400, 0x00000000
0,        708,        708,        1,  1382400, 0x00000000
0,        709,        709,        1,  1382400, 0x00000000
0,        710,        710,        1,  1382400, 0x00000000
0,        711,        711,        1,  1382400, 0x00000000
0,        712,        712,        1,  1382400, 0x00000000
0,        713,        713,        1,  1382400, 0x00000000
0,        714,        714,        1,  1382400, 0x00000000
0,        715,        715,        1,  1382400, 0x00000000
0,        716,        716,        1,  1382400, 0x00000000
0,        717,        717,        1,  1382400, 0x00000000
0,        718,        718,        1,  1382400, 0x00000000
0,        719,        719,        1,  1382400, 0x00000000
0,        720,        720,        1,  1382400, 0x00000000
0,        721,        721,        1,  1382400, 0x00000000
0,        722,        722,        1,  1382400, 0x00000000
0,        723,        723,        1,  1382400, 0x00000000
0,        724,        724,        1,  1382400, 0x00000000
0,        725,        725,        1,  1382400, 0x00000000
0,        726,        726,        1,  1382400, 0x00000000
0,        727,        727,        1,  1382400, 0x00000000
0,        728,        728,        1,  1382400, 0x00000000
0,        729,        729,        1,  1382400, 0x00000000
0,        730,        730,        1,  1382400, 0x00000000
0,        731,        731,        1,  1382400, 0x00000000
0,        732,        732,        1,  1382400, 0x00000000
0,        733,        733,        1,  1382400, 0x00000000
0,        734,        734,        1,  1382400, 0x00000000
0,        735,        735,        1,  1382400, 0x00000000
0,        737,        737,        1,  1382400, 0x4c2960ca
0,        737,        737,        1,  1382400, 0x4c2960ca
0,        738,        738,        1,  1382400, 0x4c2960ca
0,        739,        739,        1,  1382400, 0x4c2960ca
0,        740,        740,        1,  1382400, 0x4c2960ca
0,        741,        741,        1,  1382400, 0x4c2960ca
0,        742,        742,        1,  1382400, 0x4c2960ca
0,        743,        743,        1,  1382400, 0x4c2960ca
0,        744,        744,        1,  1382400, 0x4c2960ca
0,        745,        745,        1,  1382400, 0x4c2960ca
0,        746,        746,        1,  1382400, 0x4c2960ca
0,        747,        747,        1,  1382400, 0x4c2960ca
0,        748,        748,        1,  1382400, 0x4c2960ca
0,        749,        749,        1,  1382400, 0x4c2960ca
0,        750,        750,        1,  1382400, 0x4c2960ca
0,        751,        751,        1,  1382400, 0x4c2960ca
0,        752,        752,        1,  1382400, 0x4c2960ca
0,        753,        753,        1,  1382400, 0x4c2960ca
0,        754,        754,        1,  1382400, 0x4c2960ca
0,        755,        755,        1,  1382400, 0x4c2960ca
0,        756,        756,        1,  1382400, 0x4c2960ca
0,        757,        757,        1,  1382400, 0x4c2960ca
0,        758,        758,        1,  1382400, 0x4c2960ca
0,        759,        759,        1,  1382400, 0x4c2960ca
0,        760,        760,        1,  1382400, 0x00000000
0,        761,        761,        1,  1382400, 0x00000000
0,        762,        762,        1,  1382400, 0x00000000
0,        763,        763,        1,  1382400, 0x00000000
0,        764,        764,        1,  1382400, 0x00000000
0,        765,        765,        1,  1382400, 0x00000000
0,        766,        766,        1,  1382400, 0x00000000
0,        767,        767,        1,  1382400, 0x00000000
0,        768,        768,        1,  1382400, 0x00000000
0,        769,        769,        1,  1382400, 0x00000000
0,        770,        770,        1,  1382400, 0x00000000
0,        771,        771,        1,  1382400, 0x00000000
0,        772,        772,        1,  1382400, 0x00000000
0,        773,        773,        1,  1382400, 0x00000000
0,        774,        774,        1,  1382400, 0x00000000
0,        775,        775,        1,  1382400, 0x00000000
0,        776,        776,        1,  1382400, 0x00000000
0,        777,        777,        1,  1382400, 0x00000000
0,        778,        778,        1,  1382400, 0x00000000
0,        779,        779,        1,  1382400, 0x00000000
0,        780,        780,        1,  1382400, 0x00000000
0,        781,        781,        1,  1382400, 0x00000000
0,        782,        782,        1,  1382400, 0x00000000
0,        783,        783,        1,  1382400, 0x00000000
0,        784,        784,        1,  1382400, 0x00000000
0,        785,        785,        1,  1382400, 0x00000000
0,        786,        786,        1,  1382400, 0x00000000
0,        787,        787,        1,  1382400, 0x00000000
0,        788,        788,        1,  1382400, 0x00000000
0,        789,        789,        1,  1382400, 0x00000000
0,        790,        790,        1,  1382400, 0x00000000
0,        791,        791,        1,  1382400, 0x00000000
0,        792,        792,        1,  1382400, 0x00000000
0,        793,        793,        1,  1382400, 0x00000000
0,        794,        794,        1,  1382400, 0x00000000
0,        795,        795,        1,  1382400, 0x00000000
0,        796,        796,        1,  1382400, 0x00000000
0,        797,        797,        1,  1382400, 0x00000000
0,        798,        798,        1,  1382400, 0x00000000
0,        799,        799,        1,  1382400, 0x00000000
0,        800,        800,        1,  1382400, 0x00000000
0,        801,        801,        1,  1382400, 0x00000000
0,        802,        802,        1,  1382400, 0x00000000
0,        803,        803,        1,  1382400, 0x00000000
0,        804,        804,        1,  1382400, 0x00000000
0,        805,        805,        1,  1382400, 0x00000000
0,        806,        806,        1,  1382400, 0x00000000
0,        807,        807,        1,  1382400, 0x00000000
0,        808,        808,        1,  1382400, 0x00000000
0,        809,        809,        1,  1382400, 0x00000000
0,        810,        810,        1,  1382400, 0x00000000
0,        811,        811,        1,  1382400, 0x00000000
0,        812,        812,        1,  1382400, 0x00000000
0,        813,        813,        1,  1382400, 0x00000000
0,        814,        814,        1,  1382400, 0x00000000
0,        815,        815,        1,  1382400, 0x00000000
0,        816,        816,        1,  1382400, 0x00000000
0,        817,        817,        1,  1382400, 0x00000000
0,        818,        818,        1,  1382400, 0x00000000
0,        819,        819,        1,  1382400, 0x00000000
0,        820,        820,        1,  1382400, 0x00000000
0,        821,        821,        1,  1382400, 0x00000000
0,        822,        822,        1,  1382400, 0x00000000
0,        823,        823,        1,  1382400, 0x00000000
0,        824,        824,        1,  1382400, 0x00000000
0,        825,        825,        1,  1382400, 0x00000000
0,        826,        826,        1,  1382400, 0x00000000
0,        827,        827,        1,  1382400, 0x00000000
0,        828,        828,        1,  1382400, 0x00000000
0,        829,        829,        1,  1382400, 0x00000000
0,        830,        830,        1,  1382400, 0x00000000
0,        831,        831,        1,  1382400, 0x00000000
0,        832,        832,        1,  1382400, 0x00000000
0,        833,        833,        1,  1382400, 0x00000000
0,        834,        834,        1,  1382400, 0x00000000
0,        835,        835,        1,  1382400, 0x00000000
0,        836,        836,        1,  1382400, 0x00000000
0,        837,        837,        1,  1382400, 0x00000000
0,        838,        838,        1,  1382400, 0x00000000
0,        839,        839,        1,  1382400, 0x00000000
0,        840,        840,        1,  1382400, 0x00000000
0,        841,        841,        1,  1382400, 0x00000000
0,        842,        842,        1,  1382400, 0x00000000
0,        843,        843,        1,  1382400, 0x00000000
0,        844,        844,        1,  1382400, 0x00000000
0,        845,        845,        1,  1382400, 0x00000000
0,        846,        846,        1,  1382400, 0x00000000
0,        847,        847,        1,  1382400, 0x00000000
0,        848,        848,        1,  1382400, 0x00000000
0,        849,        849,        1,  1382400, 0x00000000
0,        850,        850,        1,  1382400, 0x00000000
0,        851,        851,        1,  1382400, 0x00000000
0,        852,        852,        1,  1382400, 0x00000000
0,        853,        853,        1,  1382400, 0x00000000
0,        854,        854,        1,  1382400, 0x00000000
0,        855,        855,        1,  1382400, 0x00000000
0,        856,        856,        1,  1382400, 0x00000000
0,        857,        857,        1,  1382400, 0x00000000
0,        858,        858,        1,  1382400, 0x00000000
0,        859,        859,        1,  1382400, 0x00000000
0,        860,        860,        1,  1382400, 0x00000000
0,        861,        861,        1,  1382400, 0x00000000
0,        862,        862,        1,  1382400, 0x00000000
0,        863,        863,        1,  1382400, 0x00000000
0,        864,        864,        1,  1382400, 0x00000000
0,        865,        865,        1,  1382400, 0x00000000
0,        866,        866,        1,  1382400, 0x00000000
0,        867,        867,        1,  1382400, 0x00000000
0,        868,        868,        1,  1382400, 0x00000000
0,        869,        869,        1,  1382400, 0x00000000
0,        870,        870,        1,  1382400, 0x00000000
0,        871,        871,        1,  1382400, 0x00000000
0,        872,        872,        1,  1382400, 0x00000000
0,        873,        873,        1,  1382400, 0x00000000
0,        874,        874,        1,  1382400, 0x00000000
0,        875,        875,        1,  1382400, 0x00000000
0,        876,        876,        1,  1382400, 0x00000000
0,        877,        877,        1,  1382400, 0x00000000
0,        878,        878,        1,  1382400, 0x00000000
0,        879,        879,        1,  1382400, 0x00000000
0,        880,        880,        1,  1382400, 0x00000000
0,        881,        881,        1,  1382400, 0x00000000
0,        882,        882,        1,  1382400, 0x00000000
0,        883,        883,        1,  1382400, 0x00000000
0,        884,        884,        1,  1382400, 0x00000000
0,        885,        885,        1,  1382400, 0x00000000
0,        886,        886,        1,  1382400, 0x00000000
0,        887,        887,        1,  1382400, 0x00000000
0,        888,        888,        1,  1382400, 0x00000000
0,        889,        889,        1,  1382400, 0x00000000
0,        890,        890,        1,  1382400, 0x00000000
0,        891,        891,        1,  1382400, 0x00000000
0,        892,        892,        1,  1382400, 0x00000000
0,        893,        893,        1,  1382400, 0x00000000
0,        894,        894,        1,  1382400, 0x00000000
0,        895,        895,        1,  1382400, 0x00000000
0,        896,        896,        1,  1382400, 0x00000000
0,        897,        897,        1,  1382400, 0x00000000
0,        898,        898,        1,  1382400, 0x00000000
0,        899,        899,        1,  1382400, 0x00000000
0,        900,        900,        1,  1382400, 0x00000000
0,        901,        901,        1,  1382400, 0x00000000
0,        902,        902,        1,  1382400, 0x00000000
0,        904,        904,        1,  1382400, 0x5fa18966
0,        904,        904,        1,  1382400, 0x5fa18966
0,        905,        905,        1,  1382400, 0x5fa18966
0,        906,        906,        1,  1382400, 0x5fa18966
0,        907,        907,        1,  1382400, 0x5fa18966
0,        908,        908,        1,  1382400, 0x5fa18966
0,        909,        909,        1,  1382400, 0x5fa18966
0,        910,        910,        1,  1382400, 0x5fa18966
0,        911,        911,        1,  1382400, 0x5fa18966
0,        912,        912,        1,  1382400, 0x5fa18966
0,        913,        913,        1,  1382400, 0x5fa18966
0,        914,        914,        1,  1382400, 0x5fa18966
0,        915,        915,        1,  1382400, 0x5fa18966
0,        916,        916,        1,  1382400, 0x5fa18966
0,        917,        917,        1,  1382400, 0x55f4b7b1
0,        918,        918,        1,  1382400, 0x55f4b7b1
0,        919,        919,        1,  1382400, 0x55f4b7b1
0,        920,        920,        1,  1382400, 0x55f4b7b1
0,        921,        921,        1,  1382400, 0x55f4b7b1
0,        922,        922,        1,  1382400, 0x55f4b7b1
0,        923,        923,        1,  1382400, 0x55f4b7b1
0,        924,        924,        1,  1382400, 0x55f4b7b1
0,        925,        925,        1,  1382400, 0x55f4b7b1
0,        926,        926,        1,  1382400, 0x55f4b7b1
0,        927,        927,        1,  1382400, 0x55f4b7b1
0,        928,        928,        1,  1382400, 0x55f4b7b1
0,        929,        929,        1,  1382400, 0x00000000
0,        930,        930,        1,  1382400, 0xdfa4cf32
0,        931,        931,        1,  1382400, 0xdfa4cf32
0,        932,        932,        1,  1382400, 0xdfa4cf32
0,        933,        933,        1,  1382400, 0xdfa4cf32
0,        934,        934,        1,  1382400, 0xdfa4cf32
0,        935,        935,        1,  1382400, 0xdfa4cf32
0,        936,        936,        1,  1382400, 0xdfa4cf32
0,        937,        937,        1,  1382400, 0xdfa4cf32
0,        938,        938,        1,  1382400, 0xdfa4cf32
0,        939,        939,        1,  1382400, 0xdfa4cf32
0,        940,        940,        1,  1382400, 0xdfa4cf32
0,        941,        941,        1,  1382400, 0xdfa4cf32
0,        942,        942,        1,  1382400, 0xdfa4cf32
0,        943,        943,        1,  1382400, 0x35023df8
0,        944,        944,        1,  1382400, 0x35023df8
0,        945,        945,        1,  1382400, 0x35023df8
0,        946,        946,        1,  1382400, 0x35023df8
0,        947,        947,        1,  1382400, 0x35023df8
0,        948,        948,        1,  1382400, 0x35023df8
0,        949,        949,        1,  1382400, 0x35023df8
0,        950,        950,        1,  1382400, 0xed933219
0,        951,        951,        1,  1382400, 0xed933219
0,        952,        952,        1,  1382400, 0xed933219
0,        953,        953,        1,  1382400, 0xed933219
0,        954,        954,        1,  1382400, 0xed933219
0,        955,        955,        1,  1382400, 0xed933219
0,        956,        956,        1,  1382400, 0xed933219
0,        957,        957,        1,  1382400, 0xed933219
0,        958,        958,        1,  1382400, 0x00000000
0,        959,        959,        1,  1382400, 0x00000000
0,        960,        960,        1,  1382400, 0x00000000
0,        961,        961,        1,  1382400, 0x00000000
0,        962,        962,        1,  1382400, 0x00000000
0,        963,        963,        1,  1382400, 0x00000000
0,        964,        964,        1,  1382400, 0x00000000
0,        965,        965,        1,  1382400, 0x00000000
0,        966,        966,        1,  1382400, 0x00000000
0,        967,        967,        1,  1382400, 0x00000000
0,        968,        968,        1,  1382400, 0x00000000
0,        969,        969,        1,  1382400, 0x00000000
0,        970,        970,        1,  1382400, 0x00000000
0,        971,        971,        1,  1382400, 0x00000000
0,        972,        972,        1,  1382400, 0x00000000
0,        973,        973,        1,  1382400, 0x00000000
0,        974,        974,        1,  1382400, 0x00000000
0,        975,        975,        1,  1382400, 0x00000000
0,        976,        976,        1,  1382400, 0x00000000
0,        977,        977,        1,  1382400, 0x00000000
0,        978,        978,        1,  1382400, 0x00000000
0,        979,        979,        1,  1382400, 0x00000000
0,        980,        980,        1,  1382400, 0x00000000
0,        981,        981,        1,  1382400, 0x00000000
0,        982,        982,        1,  1382400, 0x00000000
0,        983,        983,        1,  1382400, 0x00000000
0,        984,        984,        1,  1382400, 0x00000000
0,        985,        985,        1,  1382400, 0x00000000
0,        986,        986,        1,  1382400, 0x00000000
0,        987,        987,        1,  1382400, 0x00000000
0,        988,        988,        1,  1382400, 0x00000000
0,        989,        989,        1,  1382400, 0x00000000
0,        990,        990,        1,  1382400, 0x00000000
0,        991,        991,        1,  1382400, 0x00000000
0,        992,        992,        1,  1382400, 0x00000000
0,        993,        993,        1,  1382400, 0x00000000
0,        994,        994,        1,  1382400, 0x00000000
0,        995,        995,        1,  1382400, 0x00000000
0,        996,        996,        1,  1382400, 0x00000000
0,        997,        997,        1,  1382400, 0x00000000
0,        999,        999,        1,  1382400, 0x1b26389a
0,        999,        999,        1,  1382400, 0x1b26389a
0,       1000,       1000,        1,  1382400, 0x1b26389a
0,       1001,       1001,        1,  1382400, 0x1b26389a
0,       1002,       1002,        1,  1382400, 0x1b26389a
0,       1003,       1003,        1,  1382400, 0x1b26389a
0,       1004,       1004,        1,  1382400, 0x1b26389a
0,       1006,       1006,        1,  1382400, 0xf0c7028b
0,       1006,       1006,        1,  1382400, 0xf0c7028b
0,       1007,       1007,        1,  1382400, 0xf0c7028b
0,       1008,       1008,        1,  1382400, 0xf0c7028b
0,       1009,       1009,        1,  1382400, 0xf0c7028b
0,       1010,       1010,        1,  1382400, 0xf0c7028b
0,       1011,       1011,        1,  1382400, 0xf0c7028b
0,       1012,       1012,        1,  1382400, 0xf0c7028b
0,       1013,       1013,        1,  1382400, 0xf0c7028b
0,       1014,       1014,        1,  1382400, 0x395f521d
0,       1015,       1015,        1,  1382400, 0x395f521d
0,       1016,       1016,        1,  1382400, 0x395f521d
0,       1017,       1017,        1,  1382400, 0x395f521d
0,       1018,       1018,        1,  1382400, 0x395f521d
0,       1019,       1019,        1,  1382400, 0x395f521d
0,       1020,       1020,        1,  1382400, 0x395f521d
0,       1021,       1021,        1,  1382400, 0x395f521d
0,       1022,       1022,        1,  1382400, 0x395f521d
0,       1024,       1024,        1,  1382400, 0x1ea87415
0,       1024,       1024,        1,  1382400, 0x1ea87415
0,       1025,       1025,        1,  1382400, 0x1ea87415
0,       1026,       1026,        1,  1382400, 0x1ea87415
0,       1027,       1027,        1,  1382400, 0x1ea87415
0,       1028,       1028,        1,  1382400, 0x1ea87415
0,       1029,       1029,        1,  1382400, 0x1ea87415
0,       1030,       1030,        1,  1382400, 0x1ea87415
0,       1031,       1031,        1,  1382400, 0x1ea87415
0,       1032,       1032,        1,  1382400, 0x1ea87415
0,       1033,       1033,        1,  1382400, 0x1ea87415
0,       1034,       1034,        1,  1382400, 0xc6effdc1
0,       1035,       1035,        1,  1382400, 0xc6effdc1
0,       1036,       1036,        1,  1382400, 0xc6effdc1
0,       1037,       1037,        1,  1382400, 0xc6effdc1
0,       1038,       1038,        1,  1382400, 0xc6effdc1
0,       1039,       1039,        1,  1382400, 0xc6effdc1
0,       1040,       1040,        1,  1382400, 0xc6effdc1
0,       1041,       1041,        1,  1382400, 0xc6effdc1
0,       1042,       1042,        1,  1382400, 0xc6effdc1
0,       1044,       1044,        1,  1382400, 0xba6846f8
0,       1044,       1044,        1,  1382400, 0xba6846f8
0,       1045,       1045,        1,  1382400, 0xba6846f8
0,       1046,       1046,        1,  1382400, 0xba6846f8
0,       1047,       1047,        1,  1382400, 0xba6846f8
0,       1048,       1048,        1,  1382400, 0xba6846f8
0,       1049,       1049,        1,  1382400, 0xba6846f8
0,       1050,       1050,        1,  1382400, 0x033c5d5b
0,       1051,       1051,        1,  1382400, 0x033c5d5b
0,       1052,       1052,        1,  1382400, 0x033c5d5b
0,       1053,       1053,        1,  1382400, 0x033c5d5b
0,       1054,       1054,        1,  1382400, 0x033c5d5b
0,       1055,       1055,        1,  1382400, 0x033c5d5b
0,       1056,       1056,        1,  1382400, 0x033c5d5b
0,       1057,       1057,        1,  1382400, 0x033c5d5b
0,       1058,       1058,        1,  1382400, 0x00000000
0,       1059,       1059,        1,  1382400, 0xef5abf66
0,       1060,       1060,        1,  1382400, 0xef5abf66
0,       1061,       1061,        1,  1382400, 0xef5abf66
0,       1062,       1062,        1,  1382400, 0xef5abf66
0,       1063,       1063,        1,  1382400, 0xef5abf66
0,       1064,       1064,        1,  1382400, 0xef5abf66
0,       1065,       1065,        1,  1382400, 0xef5abf66
0,       1066,       1066,        1,  1382400, 0xef5abf66
0,       1067,       1067,        1,  1382400, 0xef5abf66
0,       1068,       1068,        1,  1382400, 0xef5abf66
0,       1069,       1069,        1,  1382400, 0xef5abf66
0,       1070,       1070,        1,  1382400, 0xef5abf66
0,       1071,       1071,        1,  1382400, 0xef5abf66
0,       1072,       1072,        1,  1382400, 0x00000000
0,       1073,       1073,        1,  1382400, 0xec747954
0,       1074,       1074,        1,  1382400, 0xec747954
0,       1075,       1075,        1,  1382400, 0xec747954
0,       1076,       1076,        1,  1382400, 0xec747954
0,       1077,       1077,        1,  1382400, 0xec747954
0,       1078,       1078,        1,  1382400, 0xec747954
0,       1079,       1079,        1,  1382400, 0xec747954
0,       1080,       1080,        1,  1382400, 0xec747954
0,       1081,       1081,        1,  1382400, 0xec747954
0,       1082,       1082,        1,  1382400, 0xec747954
0,       1083,       1083,        1,  1382400, 0xec747954
0,       1084,       1084,        1,  1382400, 0xec747954
0,       1085,       1085,        1,  1382400, 0xec747954
0,       1086,       1086,        1,  1382400, 0x00000000
0,       1087,       1087,        1,  1382400, 0xfa34bcaf
0,       1088,       1088,        1,  1382400, 0xfa34bcaf
0,       1089,       1089,        1,  1382400, 0xfa34bcaf
0,       1090,       1090,        1,  1382400, 0xfa34bcaf
0,       1091,       1091,        1,  1382400, 0xfa34bcaf
0,       1092,       1092,        1,  1382400, 0xfa34bcaf
0,       1093,       1093,        1,  1382400, 0xfa34bcaf
0,       1094,       1094,        1,  1382400, 0xfa34bcaf
0,       1095,       1095,        1,  1382400, 0xfa34bcaf
0,       1096,       1096,        1,  1382400, 0xfa34bcaf
0,       1097,       1097,        1,  1382400, 0xfa34bcaf
0,       1098,       1098,        1,  1382400, 0x00000000
0,       1099,       1099,        1,  1382400, 0x8b7a709b
0,       1100,       1100,        1,  1382400, 0x8b7a709b
0,       1101,       1101,        1,  1382400, 0x8b7a709b
0,       1102,       1102,        1,  1382400, 0x8b7a709b
0,       1103,       1103,        1,  1382400, 0x8b7a709b
0,       1104,       1104,        1,  1382400, 0x8b7a709b
0,       1105,       1105,        1,  1382400, 0x8b7a709b
0,       1106,       1106,        1,  1382400, 0x8b7a709b
0,       1107,       1107,        1,  1382400, 0x00000000
0,       1108,       1108,        1,  1382400, 0x00000000
0,       1109,       1109,        1,  1382400, 0x00000000
0,       1110,       1110,        1,  1382400, 0x00000000
0,       1111,       1111,        1,  1382400, 0x00000000
0,       1112,       1112,        1,  1382400, 0x00000000
0,       1113,       1113,        1,  1382400, 0x00000000
0,       1114,       1114,        1,  1382400, 0x00000000
0,       1115,       1115,        1,  1382400, 0x00000000
0,       1116,       1116,        1,  1382400, 0x00000000
0,       1118,       1118,        1,  1382400, 0xc333382f
0,       1118,       1118,        1,  1382400, 0xc333382f
0,       1119,       1119,        1,  1382400, 0xc333382f
0,       1120,       1120,        1,  1382400, 0xc333382f
0,       1121,       1121,        1,  1382400, 0xc333382f
0,       1122,       1122,        1,  1382400, 0xc333382f
0,       1123,       1123,        1,  1382400, 0xc333382f
0,       1124,       1124,        1,  1382400, 0xc333382f
0,       1125,       1125,        1,  1382400, 0xc333382f
0,       1126,       1126,        1,  1382400, 0xc333382f
0,       1127,       1127,        1,  1382400, 0xc333382f
0,       1128,       1128,        1,  1382400, 0xc333382f
0,       1129,       1129,        1,  1382400, 0x00000000
0,       1130,       1130,        1,  1382400, 0x00000000
0,       1131,       1131,        1,  1382400, 0x00000000
0,       1132,       1132,        1,  1382400, 0x00000000
0,       1133,       1133,        1,  1382400, 0x00000000
0,       1134,       1134,        1,  1382400, 0x00000000
0,       1135,       1135,        1,  1382400, 0x00000000
0,       1136,       1136,        1,  1382400, 0x00000000
0,       1138,       1138,        1,  1382400, 0xabe5dfcf
0,       1138,       1138,        1,  1382400, 0xabe5dfcf
0,       1139,       1139,        1,  1382400, 0xabe5dfcf
0,       1140,       1140,        1,  1382400, 0xabe5dfcf
0,       1141,       1141,        1,  1382400, 0xabe5dfcf
0,       1142,       1142,        1,  1382400, 0xabe5dfcf
0,       1143,       1143,        1,  1382400, 0xabe5dfcf
0,       1144,       1144,        1,  1382400, 0xabe5dfcf
0,       1145,       1145,        1,  1382400, 0xabe5dfcf
0,       1146,       1146,        1,  1382400, 0xabe5dfcf
0,       1147,       1147,        1,  1382400, 0xabe5dfcf
0,       1148,       1148,        1,  1382400, 0xabe5dfcf
0,       1149,       1149,        1,  1382400, 0xabe5dfcf
0,       1150,       1150,        1,  1382400, 0xabe5dfcf
0,       1151,       1151,        1,  1382400, 0xabe5dfcf
0,       1152,       1152,        1,  1382400, 0xabe5dfcf
0,       1153,       1153,        1,  1382400, 0xabe5dfcf
0,       1154,       1154,        1,  1382400, 0x56948101
0,       1155,       1155,        1,  1382400, 0x56948101
0,       1156,       1156,        1,  1382400, 0x56948101
0,       1157,       1157,        1,  1382400, 0x56948101
0,       1158,       1158,        1,  1382400, 0x56948101
0,       1159,       1159,        1,  1382400, 0x56948101
0,       1160,       1160,        1,  1382400, 0x56948101
0,       1161,       1161,        1,  1382400, 0x56948101
0,       1162,       1162,        1,  1382400, 0x56948101
0,       1163,       1163,        1,  1382400, 0x56948101
0,       1164,       1164,        1,  1382400, 0x56948101
0,       1166,       1166,        1,  1382400, 0xb747834a
0,       1166,       1166,        1,  1382400, 0xb747834a
0,       1167,       1167,        1,  1382400, 0xb747834a
0,       1168,       1168,        1,  1382400, 0xb747834a
0,       1169,       1169,        1,  1382400, 0xb747834a
0,       1170,       1170,        1,  1382400, 0xb747834a
0,       1171,       1171,        1,  1382400, 0xb747834a
0,       1172,       1172,        1,  1382400, 0xb747834a
0,       1173,       1173,        1,  1382400, 0xb747834a
0,       1174,       1174,        1,  1382400, 0xb747834a
0,       1175,       1175,        1,  1382400, 0xb747834a
0,       1176,       1176,        1,  1382400, 0xb747834a
0,       1177,       1177,        1,  1382400, 0xb747834a
0,       1178,       1178,        1,  1382400, 0xb747834a
0,       1179,       1179,        1,  1382400, 0xb747834a
0,       1180,       1180,        1,  1382400, 0xb747834a
0,       1181,       1181,        1,  1382400, 0xb747834a
0,       1182,       1182,        1,  1382400, 0xb747834a
0,       1183,       1183,        1,  1382400, 0xb747834a
0,       1184,       1184,        1,  1382400, 0xb747834a
0,       1185,       1185,        1,  1382400, 0xb747834a
0,       1187,       1187,        1,  1382400, 0x3448baad
0,       1187,       1187,        1,  1382400, 0x3448baad
0,       1188,       1188,        1,  1382400, 0x3448baad
0,       1189,       1189,        1,  1382400, 0x3448baad
0,       1190,       1190,        1,  1382400, 0x3448baad
0,       1191,       1191,        1,  1382400, 0x3448baad
0,       1192,       1192,        1,  1382400, 0x3448baad
0,       1193,       1193,        1,  1382400, 0x3448baad
0,       1194,       1194,        1,  1382400, 0x3448baad
0,       1195,       1195,        1,  1382400, 0x3448baad
0,       1196,       1196,        1,  1382400, 0x3448baad
0,       1197,       1197,        1,  1382400, 0x3448baad
0,       1198,       1198,        1,  1382400, 0x3448baad
0,       1199,       1199,        1,  1382400, 0x3448baad
0,       1200,       1200,        1,  1382400, 0x00000000
0,       1201,       1201,        1,  1382400, 0xaabe4f37
0,       1202,       1202,        1,  1382400, 0xaabe4f37
0,       1203,       1203,        1,  1382400, 0xaabe4f37
0,       1204,       1204,        1,  1382400, 0xaabe4f37
0,       1205,       1205,        1,  1382400, 0xaabe4f37
0,       1206,       1206,        1,  1382400, 0xaabe4f37
0,       1207,       1207,        1,  1382400, 0xaabe4f37
0,       1208,       1208,        1,  1382400, 0xaabe4f37
0,       1209,       1209,        1,  1382400, 0xaabe4f37
0,       1210,       1210,        1,  1382400, 0xaabe4f37
0,       1211,       1211,        1,  1382400, 0x00000000
0,       1212,       1212,        1,  1382400, 0x00000000
0,       1213,       1213,        1,  1382400, 0x00000000
0,       1214,       1214,        1,  1382400, 0x00000000
0,       1215,       1215,        1,  1382400, 0x00000000
0,       1216,       1216,        1,  1382400, 0x00000000
0,       1217,       1217,        1,  1382400, 0x00000000
0,       1218,       1218,        1,  1382400, 0x00000000
0,       1219,       1219,        1,  1382400, 0x00000000
0,       1220,       1220,        1,  1382400, 0x00000000
0,       1221,       1221,        1,  1382400, 0x00000000
0,       1222,       1222,        1,  1382400, 0x00000000
0,       1223,       1223,        1,  1382400, 0x00000000
0,       1224,       1224,        1,  1382400, 0x00000000
0,       1225,       1225,        1,  1382400, 0x00000000
0,       1226,       1226,        1,  1382400, 0x00000000
0,       1227,       1227,        1,  1382400, 0x00000000
0,       1228,       1228,        1,  1382400, 0x00000000
0,       1229,       1229,        1,  1382400, 0x00000000
0,       1230,       1230,        1,  1382400, 0x00000000
0,       1231,       1231,        1,  1382400, 0x00000000
0,       1232,       1232,        1,  1382400, 0x00000000
0,       1233,       1233,        1,  1382400, 0x00000000
0,       1234,       1234,        1,  1382400, 0x00000000
0,       1235,       1235,        1,  1382400, 0x00000000
0,       1236,       1236,        1,  1382400, 0x00000000
0,       1237,       1237,        1,  1382400, 0x00000000
0,       1238,       1238,        1,  1382400, 0x00000000
0,       1239,       1239,        1,  1382400, 0x00000000
0,       1240,       1240,        1,  1382400, 0x00000000
0,       1241,       1241,        1,  1382400, 0x00000000
0,       1242,       1242,        1,  1382400, 0x00000000
0,       1243,       1243,        1,  1382400, 0x00000000
0,       1244,       1244,        1,  1382400, 0x00000000
0,       1245,       1245,        1,  1382400, 0x00000000
0,       1246,       1246,        1,  1382400, 0x00000000
0,       1247,       1247,        1,  1382400, 0x00000000
0,       1248,       1248,        1,  1382400, 0x00000000
0,       1249,       1249,        1,  1382400, 0x00000000
0,       1250,       1250,        1,  1382400, 0x00000000
0,       1251,       1251,        1,  1382400, 0x00000000
0,       1252,       1252,        1,  1382400, 0x00000000
0,       1253,       1253,        1,  1382400, 0x00000000
0,       1254,       1254,        1,  1382400, 0x00000000
0,       1255,       1255,        1,  1382400, 0x00000000
0,       1256,       1256,        1,  1382400, 0x00000000
0,       1257,       1257,        1,  1382400, 0x00000000
0,       1258,       1258,        1,  1382400, 0x00000000
0,       1259,       1259,        1,  1382400, 0x00000000
0,       1260,       1260,        1,  1382400, 0x00000000
0,       1261,       1261,        1,  1382400, 0x00000000
0,       1262,       1262,        1,  1382400, 0x00000000
0,       1263,       1263,        1,  1382400, 0x00000000
0,       1264,       1264,        1,  1382400, 0x00000000
0,       1265,       1265,        1,  1382400, 0x00000000
0,       1266,       1266,        1,  1382400, 0x00000000
0,       1267,       1267,        1,  1382400, 0x00000000
0,       1268,       1268,        1,  1382400, 0x00000000
0,       1269,       1269,        1,  1382400, 0x00000000
0,       1270,       1270,        1,  1382400, 0x00000000
0,       1271,       1271,        1,  1382400, 0x00000000
0,       1272,       1272,        1,  1382400, 0x00000000
0,       1273,       1273,        1,  1382400, 0x00000000
0,       1274,       1274,        1,  1382400, 0x00000000
0,       1275,       1275,        1,  1382400, 0x00000000
0,       1276,       1276,        1,  1382400, 0x00000000
0,       1277,       1277,        1,  1382400, 0x00000000
0,       1278,       1278,        1,  1382400, 0x00000000
0,       1279,       1279,        1,  1382400, 0x00000000
0,       1280,       1280,        1,  1382400, 0x00000000
0,       1281,       1281,        1,  1382400, 0x00000000
0,       1282,       1282,        1,  1382400, 0x00000000
0,       1283,       1283,        1,  1382400, 0x00000000
0,       1284,       1284,        1,  1382400, 0x00000000
0,       1285,       1285,        1,  1382400, 0x00000000
0,       1286,       1286,        1,  1382400, 0x00000000
0,       1287,       1287,        1,  1382400, 0x00000000
0,       1288,       1288,        1,  1382400, 0x00000000
0,       1289,       1289,        1,  1382400, 0x00000000
0,       1290,       1290,        1,  1382400, 0x00000000
0,       1291,       1291,        1,  1382400, 0x00000000
0,       1292,       1292,        1,  1382400, 0x00000000
0,       1293,       1293,        1,  1382400, 0x00000000
0,       1294,       1294,        1,  1382400, 0x00000000
0,       1295,       1295,        1,  1382400, 0x00000000
0,       1296,       1296,        1,  1382400, 0x00000000
0,       1297,       1297,        1,  1382400, 0x00000000
0,       1298,       1298,        1,  1382400, 0x00000000
0,       1299,       1299,        1,  1382400, 0x00000000
0,       1300,       1300,        1,  1382400, 0x00000000
0,       1301,       1301,        1,  1382400, 0x00000000
0,       1302,       1302,        1,  1382400, 0x00000000
0,       1303,       1303,        1,  1382400, 0x00000000
0,       1304,       1304,        1,  1382400, 0x00000000
0,       1305,       1305,        1,  1382400, 0x00000000
0,       1306,       1306,        1,  1382400, 0x00000000
0,       1307,       1307,        1,  1382400, 0x00000000
0,       1308,       1308,        1,  1382400, 0x00000000
0,       1309,       1309,        1,  1382400, 0x00000000
0,       1310,       1310,        1,  1382400, 0x00000000
0,       1311,       1311,        1,  1382400, 0x00000000
0,       1312,       1312,        1,  1382400, 0x00000000
0,       1313,       1313,        1,  1382400, 0x00000000
0,       1314,       1314,        1,  1382400, 0x00000000
0,       1315,       1315,        1,  1382400, 0x00000000
0,       1316,       1316,        1,  1382400, 0x00000000
0,       1317,       1317,        1,  1382400, 0x00000000
0,       1318,       1318,        1,  1382400, 0x00000000
0,       1319,       1319,        1,  1382400, 0x00000000
0,       1320,       1320,        1,  1382400, 0x00000000
0,       1321,       1321,        1,  1382400, 0x00000000
0,       1322,       1322,        1,  1382400, 0x00000000
0,       1323,       1323,        1,  1382400, 0x00000000
0,       1324,       1324,        1,  1382400, 0x00000000
0,       1325,       1325,        1,  1382400, 0x00000000
0,       1326,       1326,        1,  1382400, 0x00000000
0,       1327,       1327,        1,  1382400, 0x00000000
0,       1328,       1328,        1,  1382400, 0x00000000
0,       1329,       1329,        1,  1382400, 0x00000000
0,       1330,       1330,        1,  1382400, 0x00000000
0,       1331,       1331,        1,  1382400, 0x00000000
0,       1332,       1332,        1,  1382400, 0x00000000
0,       1333,       1333,        1,  1382400, 0x00000000
0,       1334,       1334,        1,  1382400, 0x00000000
0,       1335,       1335,        1,  1382400, 0x00000000
0,       1336,       1336,        1,  1382400, 0x00000000
0,       1337,       1337,        1,  1382400, 0x00000000
0,       1338,       1338,        1,  1382400, 0x00000000
0,       1339,       1339,        1,  1382400, 0x00000000
0,       1340,       1340,        1,  1382400, 0x00000000
0,       1341,       1341,        1,  1382400, 0x00000000
0,       1342,       1342,        1,  1382400, 0x00000000
0,       1343,       1343,        1,  1382400, 0x00000000
0,       1344,       1344,        1,  1382400, 0x00000000
0,       1345,       1345,        1,  1382400, 0x00000000
0,       1346,       1346,        1,  1382400, 0x00000000
0,       1347,       1347,        1,  1382400, 0x00000000
0,       1348,       1348,        1,  1382400, 0x00000000
0,       1349,       1349,        1,  1382400, 0x00000000
0,       1350,       1350,        1,  1382400, 0x00000000
0,       1351,       1351,        1,  1382400, 0x00000000
0,       1352,       1352,        1,  1382400, 0x00000000
0,       1353,       1353,        1,  1382400, 0x00000000
0,       1354,       1354,        1,  1382400, 0x00000000
0,       1355,       1355,        1,  1382400, 0x00000000
0,       1356,       1356,        1,  1382400, 0x00000000
0,       1357,       1357,        1,  1382400, 0x00000000
0,       1358,       1358,        1,  1382400, 0x00000000
0,       1359,       1359,        1,  1382400, 0x00000000
0,       1360,       1360,        1,  1382400, 0x00000000
0,       1361,       1361,        1,  1382400, 0x00000000
0,       1362,       1362,        1,  1382400, 0x00000000
0,       1363,       1363,        1,  1382400, 0x00000000
0,       1364,       1364,        1,  1382400, 0x00000000
0,       1365,       1365,        1,  1382400, 0x00000000
0,       1366,       1366,        1,  1382400, 0x00000000
0,       1368,       1368,        1,  1382400, 0x8a48cd6f
0,       1368,       1368,        1,  1382400, 0x8a48cd6f
0,       1369,       1369,        1,  1382400, 0x8a48cd6f
0,       1370,       1370,        1,  1382400, 0x8a48cd6f
0,       1371,       1371,        1,  1382400, 0x8a48cd6f
0,       1372,       1372,        1,  1382400, 0x8a48cd6f
0,       1373,       1373,        1,  1382400, 0x8a48cd6f
0,       1374,       1374,        1,  1382400, 0x8a48cd6f
0,       1375,       1375,        1,  1382400, 0x8a48cd6f
0,       1376,       1376,        1,  1382400, 0x00000000
0,       1377,       1377,        1,  1382400, 0x00000000
0,       1378,       1378,        1,  1382400, 0x00000000
0,       1379,       1379,        1,  1382400, 0x00000000
0,       1380,       1380,        1,  1382400, 0x00000000
0,       1381,       1381,        1,  1382400, 0x00000000
0,       1382,       1382,        1,  1382400, 0x00000000
0,       1383,       1383,        1,  1382400, 0x00000000
0,       1384,       1384,        1,  1382400, 0x00000000
0,       1385,       1385,        1,  1382400, 0x00000000
0,       1386,       1386,        1,  1382400, 0x00000000
0,       1387,       1387,        1,  1382400, 0x00000000
0,       1388,       1388,        1,  1382400, 0x00000000
0,       1389,       1389,        1,  1382400, 0x00000000
0,       1390,       1390,        1,  1382400, 0x00000000
0,       1391,       1391,        1,  1382400, 0x00000000
0,       1392,       1392,        1,  1382400, 0x00000000
0,       1393,       1393,        1,  1382400, 0x00000000
0,       1394,       1394,        1,  1382400, 0x00000000
0,       1395,       1395,        1,  1382400, 0x00000000
0,       1396,       1396,        1,  1382400, 0x00000000
0,       1397,       1397,        1,  1382400, 0x00000000
0,       1398,       1398,        1,  1382400, 0x00000000
0,       1399,       1399,        1,  1382400, 0x00000000
0,       1400,       1400,        1,  1382400, 0x00000000
0,       1401,       1401,        1,  1382400, 0x00000000
0,       1402,       1402,        1,  1382400, 0x00000000
0,       1403,       1403,        1,  1382400, 0x00000000
0,       1404,       1404,        1,  1382400, 0x00000000
0,       1405,       1405,        1,  1382400, 0x00000000
0,       1406,       1406,        1,  1382400, 0x00000000
0,       1407,       1407,        1,  1382400, 0x00000000
0,       1408,       1408,        1,  1382400, 0x00000000
0,       1409,       1409,        1,  1382400, 0x00000000
0,       1410,       1410,        1,  1382400, 0x00000000
0,       1411,       1411,        1,  1382400, 0x00000000
0,       1412,       1412,        1,  1382400, 0x00000000
0,       1413,       1413,        1,  1382400, 0x00000000
0,       1414,       1414,        1,  1382400, 0x00000000
0,       1415,       1415,        1,  1382400, 0x00000000
0,       1416,       1416,        1,  1382400, 0x00000000
0,       1417,       1417,        1,  1382400, 0x00000000
0,       1418,       1418,        1,  1382400, 0x00000000
0,       1419,       1419,        1,  1382400, 0x00000000
0,       1420,       1420,        1,  1382400, 0x00000000
0,       1421,       1421,        1,  1382400, 0x00000000
0,       1422,       1422,        1,  1382400, 0x00000000
0,       1423,       1423,        1,  1382400, 0x00000000
0,       1424,       1424,        1,  1382400, 0x00000000
0,       1425,       1425,        1,  1382400, 0x00000000
0,       1426,       1426,        1,  1382400, 0x00000000
0,       1427,       1427,        1,  1382400, 0x00000000
0,       1428,       1428,        1,  1382400, 0x00000000
0,       1429,       1429,        1,  1382400, 0x00000000
0,       1430,       1430,        1,  1382400, 0x00000000
0,       1431,       1431,        1,  1382400, 0x00000000
0,       1432,       1432,        1,  1382400, 0x00000000
0,       1433,       1433,        1,  1382400, 0x00000000
0,       1434,       1434,        1,  1382400, 0x00000000
0,       1435,       1435,        1,  1382400, 0x00000000
0,       1436,       1436,        1,  1382400, 0x00000000
0,       1437,       1437,        1,  1382400, 0x00000000
0,       1438,       1438,        1,  1382400, 0x00000000
0,       1439,       1439,        1,  1382400, 0x00000000
0,       1440,       1440,        1,  1382400, 0x00000000
0,       1441,       1441,        1,  1382400, 0x00000000
0,       1442,       1442,        1,  1382400, 0x00000000
0,       1443,       1443,        1,  1382400, 0x00000000
0,       1444,       1444,        1,  1382400, 0x00000000
0,       1445,       1445,        1,  1382400, 0x00000000
0,       1446,       1446,        1,  1382400, 0x00000000
0,       1447,       1447,        1,  1382400, 0x00000000
0,       1448,       1448,        1,  1382400, 0x00000000
0,       1449,       1449,        1,  1382400, 0x00000000
0,       1450,       1450,        1,  1382400, 0x00000000
0,       1451,       1451,        1,  1382400, 0x00000000
0,       1452,       1452,        1,  1382400, 0x00000000
0,       1453,       1453,        1,  1382400, 0x00000000
0,       1454,       1454,        1,  1382400, 0x00000000
0,       1455,       1455,        1,  1382400, 0x00000000
0,       1456,       1456,        1,  1382400, 0x00000000
0,       1457,       1457,        1,  1382400, 0x00000000
0,       1458,       1458,        1,  1382400, 0x00000000
0,       1459,       1459,        1,  1382400, 0x00000000
0,       1460,       1460,        1,  1382400, 0x00000000
0,       1461,       1461,        1,  1382400, 0x00000000
0,       1462,       1462,        1,  1382400, 0x00000000
0,       1463,       1463,        1,  1382400, 0x00000000
0,       1464,       1464,        1,  1382400, 0x00000000
0,       1465,       1465,        1,  1382400, 0x00000000
0,       1466,       1466,        1,  1382400, 0x00000000
0,       1467,       1467,        1,  1382400, 0x00000000
0,       1468,       1468,        1,  1382400, 0x00000000
0,       1469,       1469,        1,  1382400, 0x00000000
0,       1470,       1470,        1,  1382400, 0x00000000
0,       1471,       1471,        1,  1382400, 0x00000000
0,       1472,       1472,        1,  1382400, 0x00000000
0,       1473,       1473,        1,  1382400, 0x00000000
0,       1474,       1474,        1,  1382400, 0x00000000
0,       1475,       1475,        1,  1382400, 0x00000000
0,       1477,       1477,        1,  1382400, 0x49518c43
0,       1477,       1477,        1,  1382400, 0x49518c43
0,       1478,       1478,        1,  1382400, 0x49518c43
0,       1479,       1479,        1,  1382400, 0x49518c43
0,       1480,       1480,        1,  1382400, 0x49518c43
0,       1481,       1481,        1,  1382400, 0x49518c43
0,       1482,       1482,        1,  1382400, 0x49518c43
0,       1483,       1483,        1,  1382400, 0x49518c43
0,       1484,       1484,        1,  1382400, 0x00000000
0,       1485,       1485,        1,  1382400, 0x00000000
0,       1486,       1486,        1,  1382400, 0x00000000
0,       1487,       1487,        1,  1382400, 0x00000000
0,       1488,       1488,        1,  1382400, 0x00000000
0,       1489,       1489,        1,  1382400, 0x00000000
0,       1490,       1490,        1,  1382400, 0x00000000
0,       1491,       1491,        1,  1382400, 0x00000000
0,       1492,       1492,        1,  1382400, 0x00000000
0,       1493,       1493,        1,  1382400, 0x00000000
0,       1494,       1494,        1,  1382400, 0x00000000
0,       1495,       1495,        1,  1382400, 0x00000000
0,       1496,       1496,        1,  1382400, 0x00000000
0,       1497,       1497,        1,  1382400, 0x00000000
0,       1498,       1498,        1,  1382400, 0x00000000
0,       1500,       1500,        1,  1382400, 0x4a72fa21
0,       1500,       1500,        1,  1382400, 0x4a72fa21
0,       1501,       1501,        1,  1382400, 0x4a72fa21
0,       1502,       1502,        1,  1382400, 0x4a72fa21
0,       1503,       1503,        1,  1382400, 0x4a72fa21
0,       1504,       1504,        1,  1382400, 0x4a72fa21
0,       1505,       1505,        1,  1382400, 0x4a72fa21
0,       1506,       1506,        1,  1382400, 0x4a72fa21
0,       1507,       1507,        1,  1382400, 0x4a72fa21
0,       1508,       1508,        1,  1382400, 0x4a72fa21
0,       1509,       1509,        1,  1382400, 0x4a72fa21
0,       1510,       1510,        1,  1382400, 0x00000000
0,       1511,       1511,        1,  1382400, 0xa82f7de8
0,       1512,       1512,        1,  1382400, 0xa82f7de8
0,       1513,       1513,        1,  1382400, 0xa82f7de8
0,       1514,       1514,        1,  1382400, 0xa82f7de8
0,       1515,       1515,        1,  1382400, 0xa82f7de8
0,       1516,       1516,        1,  1382400, 0xa82f7de8
0,       1517,       1517,        1,  1382400, 0xa82f7de8
0,       1518,       1518,        1,  1382400, 0x00000000
0,       1519,       1519,        1,  1382400, 0x00000000
0,       1521,       1521,        1,  1382400, 0xeba0b5f3
0,       1521,       1521,        1,  1382400, 0xeba0b5f3
0,       1522,       1522,        1,  1382400, 0xeba0b5f3
0,       1523,       1523,        1,  1382400, 0xeba0b5f3
0,       1524,       1524,        1,  1382400, 0xeba0b5f3
0,       1525,       1525,        1,  1382400, 0xeba0b5f3
0,       1526,       1526,        1,  1382400, 0xeba0b5f3
0,       1527,       1527,        1,  1382400, 0xeba0b5f3
0,       1528,       1528,        1,  1382400, 0xeba0b5f3
0,       1530,       1530,        1,  1382400, 0xd6a91770
0,       1530,       1530,        1,  1382400, 0xd6a91770
0,       1531,       1531,        1,  1382400, 0xd6a91770
0,       1532,       1532,        1,  1382400, 0xd6a91770
0,       1533,       1533,        1,  1382400, 0xd6a91770
0,       1534,       1534,        1,  1382400, 0xd6a91770
0,       1535,       1535,        1,  1382400, 0xd6a91770
0,       1536,       1536,        1,  1382400, 0xd6a91770
0,       1537,       1537,        1,  1382400, 0xd6a91770
0,       1538,       1538,        1,  1382400, 0xd6a91770
0,       1539,       1539,        1,  1382400, 0x00000000
0,       1540,       1540,        1,  1382400, 0x222f827c
0,       1541,       1541,        1,  1382400, 0x222f827c
0,       1542,       1542,        1,  1382400, 0x222f827c
0,       1543,       1543,        1,  1382400, 0x222f827c
0,       1544,       1544,        1,  1382400, 0x222f827c
0,       1545,       1545,        1,  1382400, 0x222f827c
0,       1546,       1546,        1,  1382400, 0x222f827c
0,       1547,       1547,        1,  1382400, 0x222f827c
0,       1548,       1548,        1,  1382400, 0x222f827c
0,       1549,       1549,        1,  1382400, 0x00000000
0,       1550,       1550,        1,  1382400, 0x00000000
0,       1551,       1551,        1,  1382400, 0x00000000
0,       1552,       1552,        1,  1382400, 0x00000000
0,       1553,       1553,        1,  1382400, 0x00000000
0,       1554,       1554,        1,  1382400, 0x00000000
0,       1555,       1555,        1,  1382400, 0x00000000
0,       1556,       1556,        1,  1382400, 0x00000000
0,       1557,       1557,        1,  1382400, 0x00000000
0,       1558,       1558,        1,  1382400, 0x00000000
0,       1559,       1559,        1,  1382400, 0x00000000
0,       1560,       1560,        1,  1382400, 0x00000000
0,       1561,       1561,        1,  1382400, 0x00000000
0,       1562,       1562,        1,  1382400, 0x00000000
0,       1563,       1563,        1,  1382400, 0x00000000
0,       1564,       1564,        1,  1382400, 0x00000000
0,       1565,       1565,        1,  1382400, 0x00000000
0,       1566,       1566,        1,  1382400, 0x00000000
0,       1567,       1567,        1,  1382400, 0x00000000
0,       1568,       1568,        1,  1382400, 0x00000000
0,       1569,       1569,        1,  1382400, 0x00000000
0,       1570,       1570,        1,  1382400, 0x00000000
0,       1571,       1571,        1,  1382400, 0x00000000
0,       1572,       1572,        1,  1382400, 0x00000000
0,       1573,       1573,        1,  1382400, 0x00000000
0,       1574,       1574,        1,  1382400, 0x00000000
0,       1575,       1575,        1,  1382400, 0x00000000
0,       1576,       1576,        1,  1382400, 0x00000000
0,       1577,       1577,        1,  1382400, 0x00000000
0,       1578,       1578,        1,  1382400, 0x00000000
0,       1579,       1579,        1,  1382400, 0x00000000
0,       1580,       1580,        1,  1382400, 0x00000000
0,       1581,       1581,        1,  1382400, 0x00000000
0,       1582,       1582,        1,  1382400, 0x00000000
0,       1583,       1583,        1,  1382400, 0x00000000
0,       1584,       1584,        1,  1382400, 0x00000000
0,       1585,       1585,        1,  1382400, 0x00000000
0,       1586,       1586,        1,  1382400, 0x00000000
0,       1587,       1587,        1,  1382400, 0x00000000
0,       1588,       1588,        1,  1382400, 0x00000000
0,       1589,       1589,        1,  1382400, 0x00000000
0,       1590,       1590,        1,  1382400, 0x00000000
0,       1591,       1591,        1,  1382400, 0x00000000
0,       1592,       1592,        1,  1382400, 0x00000000
0,       1593,       1593,        1,  1382400, 0x00000000
0,       1594,       1594,        1,  1382400, 0x00000000
0,       1595,       1595,        1,  1382400, 0x00000000
0,       1596,       1596,        1,  1382400, 0x00000000
0,       1597,       1597,        1,  1382400, 0x00000000
0,       1598,       1598,        1,  1382400, 0x00000000
0,       1599,       1599,        1,  1382400, 0x00000000
0,       1600,       1600,        1,  1382400, 0x00000000
0,       1601,       1601,        1,  1382400, 0x00000000
0,       1602,       1602,        1,  1382400, 0x00000000
0,       1603,       1603,        1,  1382400, 0x00000000
0,       1604,       1604,        1,  1382400, 0x00000000
0,       1606,       1606,        1,  1382400, 0x3270f4ff
0,       1606,       1606,        1,  1382400, 0x3270f4ff
0,       1607,       1607,        1,  1382400, 0x3270f4ff
0,       1608,       1608,        1,  1382400, 0x3270f4ff
0,       1609,       1609,        1,  1382400, 0x3270f4ff
0,       1610,       1610,        1,  1382400, 0x3270f4ff
0,       1611,       1611,        1,  1382400, 0x3270f4ff
0,       1612,       1612,        1,  1382400, 0x3270f4ff
0,       1613,       1613,        1,  1382400, 0x3270f4ff
0,       1614,       1614,        1,  1382400, 0x3270f4ff
0,       1615,       1615,        1,  1382400, 0x3270f4ff
0,       1617,       1617,        1,  1382400, 0x40813cb3
0,       1617,       1617,        1,  1382400, 0x40813cb3
0,       1618,       1618,        1,  1382400, 0x40813cb3
0,       1619,       1619,        1,  1382400, 0x40813cb3
0,       1620,       1620,        1,  1382400, 0x40813cb3
0,       1621,       1621,        1,  1382400, 0x40813cb3
0,       1622,       1622,        1,  1382400, 0x40813cb3
0,       1623,       1623,        1,  1382400, 0x9d8fde41
0,       1624,       1624,        1,  1382400, 0x9d8fde41
0,       1625,       1625,        1,  1382400, 0x9d8fde41
0,       1626,       1626,        1,  1382400, 0x9d8fde41
0,       1627,       1627,        1,  1382400, 0x9d8fde41
0,       1628,       1628,        1,  1382400, 0x9d8fde41
0,       1629,       1629,        1,  1382400, 0x9d8fde41
0,       1630,       1630,        1,  1382400, 0x9d8fde41
0,       1631,       1631,        1,  1382400, 0x9d8fde41
0,       1632,       1632,        1,  1382400, 0x00000000
0,       1633,       1633,        1,  1382400, 0x00000000
0,       1634,       1634,        1,  1382400, 0x00000000
0,       1636,       1636,        1,  1382400, 0xc6d7a701
0,       1636,       1636,        1,  1382400, 0xc6d7a701
0,       1637,       1637,        1,  1382400, 0xc6d7a701
0,       1638,       1638,        1,  1382400, 0xc6d7a701
0,       1639,       1639,        1,  1382400, 0xc6d7a701
0,       1640,       1640,        1,  1382400, 0xc6d7a701
0,       1642,       1642,        1,  1382400, 0x9d45f2dc
0,       1642,       1642,        1,  1382400, 0x9d45f2dc
0,       1643,       1643,        1,  1382400, 0x9d45f2dc
0,       1644,       1644,        1,  1382400, 0x9d45f2dc
0,       1645,       1645,        1,  1382400, 0x9d45f2dc
0,       1646,       1646,        1,  1382400, 0x9d45f2dc
0,       1647,       1647,        1,  1382400, 0x9d45f2dc
0,       1648,       1648,        1,  1382400, 0x9d45f2dc
0,       1649,       1649,        1,  1382400, 0x00000000
0,       1650,       1650,        1,  1382400, 0x8525ee40
0,       1651,       1651,        1,  1382400, 0x8525ee40
0,       1652,       1652,        1,  1382400, 0x8525ee40
0,       1653,       1653,        1,  1382400, 0x8525ee40
0,       1654,       1654,        1,  1382400, 0x8525ee40
0,       1655,       1655,        1,  1382400, 0x8525ee40
0,       1656,       1656,        1,  1382400, 0x5b26b98b
0,       1657,       1657,        1,  1382400, 0x5b26b98b
0,       1658,       1658,        1,  1382400, 0x5b26b98b
0,       1659,       1659,        1,  1382400, 0x5b26b98b
0,       1660,       1660,        1,  1382400, 0x5b26b98b
0,       1661,       1661,        1,  1382400, 0x5b26b98b
0,       1662,       1662,        1,  1382400, 0x5b26b98b
0,       1663,       1663,        1,  1382400, 0x5b26b98b
0,       1664,       1664,        1,  1382400, 0x00000000
0,       1665,       1665,        1,  1382400, 0x51be311f
0,       1666,       1666,        1,  1382400, 0x51be311f
0,       1667,       1667,        1,  1382400, 0x51be311f
0,       1668,       1668,        1,  1382400, 0x51be311f
0,       1669,       1669,        1,  1382400, 0x51be311f
0,       1670,       1670,        1,  1382400, 0x51be311f
0,       1671,       1671,        1,  1382400, 0x51be311f
0,       1672,       1672,        1,  1382400, 0x51be311f
0,       1673,       1673,        1,  1382400, 0x00000000
0,       1674,       1674,        1,  1382400, 0x00000000
0,       1675,       1675,        1,  1382400, 0x00000000
0,       1676,       1676,        1,  1382400, 0x00000000
0,       1677,       1677,        1,  1382400, 0x00000000
0,       1678,       1678,        1,  1382400, 0x00000000
0,       1679,       1679,        1,  1382400, 0x00000000
0,       1680,       1680,        1,  1382400, 0x00000000
0,       1681,       1681,        1,  1382400, 0x00000000
0,       1682,       1682,        1,  1382400, 0x00000000
0,       1683,       1683,        1,  1382400, 0x00000000
0,       1684,       1684,        1,  1382400, 0x00000000
0,       1685,       1685,        1,  1382400, 0x00000000
0,       1686,       1686,        1,  1382400, 0x00000000
0,       1687,       1687,        1,  1382400, 0x00000000
0,       1688,       1688,        1,  1382400, 0x00000000
0,       1689,       1689,        1,  1382400, 0x00000000
0,       1690,       1690,        1,  1382400, 0x00000000
0,       1691,       1691,        1,  1382400, 0x00000000
0,       1692,       1692,        1,  1382400, 0x00000000
0,       1693,       1693,        1,  1382400, 0x00000000
0,       1694,       1694,        1,  1382400, 0x00000000
0,       1695,       1695,        1,  1382400, 0x00000000
0,       1696,       1696,        1,  1382400, 0x00000000
0,       1697,       1697,        1,  1382400, 0x00000000
0,       1698,       1698,        1,  1382400, 0x00000000
0,       1699,       1699,        1,  1382400, 0x00000000
0,       1700,       1700,        1,  1382400, 0x00000000
0,       1701,       1701,        1,  1382400, 0x00000000
0,       1702,       1702,        1,  1382400, 0x00000000
0,       1703,       1703,        1,  1382400, 0x00000000
0,       1704,       1704,        1,  1382400, 0x00000000
0,       1705,       1705,        1,  1382400, 0x00000000
0,       1706,       1706,        1,  1382400, 0x00000000
0,       1707,       1707,        1,  1382400, 0x00000000
0,       1708,       1708,        1,  1382400, 0x00000000
0,       1709,       1709,        1,  1382400, 0x00000000
0,       1710,       1710,        1,  1382400, 0x00000000
0,       1711,       1711,        1,  1382400, 0x00000000
0,       1713,       1713,        1,  1382400, 0x00a4f2a3
0,       1713,       1713,        1,  1382400, 0x00a4f2a3
0,       1714,       1714,        1,  1382400, 0x00a4f2a3
0,       1715,       1715,        1,  1382400, 0x00a4f2a3
0,       1716,       1716,        1,  1382400, 0x00a4f2a3
0,       1717,       1717,        1,  1382400, 0x00a4f2a3
0,       1718,       1718,        1,  1382400, 0x00a4f2a3
0,       1719,       1719,        1,  1382400, 0x00a4f2a3
0,       1720,       1720,        1,  1382400, 0x00a4f2a3
0,       1721,       1721,        1,  1382400, 0x00a4f2a3
0,       1722,       1722,        1,  1382400, 0x00000000
0,       1723,       1723,        1,  1382400, 0x00000000
0,       1724,       1724,        1,  1382400, 0x00000000
0,       1725,       1725,        1,  1382400, 0x00000000
0,       1726,       1726,        1,  1382400, 0x00000000
0,       1727,       1727,        1,  1382400, 0x00000000
0,       1728,       1728,        1,  1382400, 0x00000000
0,       1729,       1729,        1,  1382400, 0x00000000
0,       1730,       1730,        1,  1382400, 0x00000000
0,       1731,       1731,        1,  1382400, 0x00000000
0,       1732,       1732,        1,  1382400, 0x00000000
0,       1734,       1734,        1,  1382400, 0x40a445e8
0,       1734,       1734,        1,  1382400, 0x40a445e8
0,       1735,       1735,        1,  1382400, 0x40a445e8
0,       1736,       1736,        1,  1382400, 0x40a445e8
0,       1737,       1737,        1,  1382400, 0x40a445e8
0,       1738,       1738,        1,  1382400, 0x40a445e8
0,       1739,       1739,        1,  1382400, 0x40a445e8
0,       1740,       1740,        1,  1382400, 0x40a445e8
0,       1741,       1741,        1,  1382400, 0x40a445e8
0,       1742,       1742,        1,  1382400, 0x00000000
0,       1743,       1743,        1,  1382400, 0x00000000
0,       1744,       1744,        1,  1382400, 0x00000000
0,       1745,       1745,        1,  1382400, 0x00000000
0,       1746,       1746,        1,  1382400, 0x00000000
0,       1747,       1747,        1,  1382400, 0x00000000
0,       1748,       1748,        1,  1382400, 0x00000000
0,       1749,       1749,        1,  1382400, 0x00000000
0,       1750,       1750,        1,  1382400, 0x00000000
0,       1751,       1751,        1,  1382400, 0x00000000
0,       1752,       1752,        1,  1382400, 0x00000000
0,       1753,       1753,        1,  1382400, 0x00000000
0,       1754,       1754,        1,  1382400, 0x00000000
0,       1755,       1755,        1,  1382400, 0x00000000
0,       1756,       1756,        1,  1382400, 0x00000000
0,       1757,       1757,        1,  1382400, 0x00000000
0,       1758,       1758,        1,  1382400, 0x00000000
0,       1759,       1759,        1,  1382400, 0x00000000
0,       1760,       1760,        1,  1382400, 0x00000000
0,       1761,       1761,        1,  1382400, 0x00000000
0,       1762,       1762,        1,  1382400, 0x00000000
0,       1763,       1763,        1,  1382400, 0x00000000
0,       1764,       1764,        1,  1382400, 0x00000000
0,       1765,       1765,        1,  1382400, 0x00000000
0,       1766,       1766,        1,  1382400, 0x00000000
0,       1767,       1767,        1,  1382400, 0x00000000
0,       1768,       1768,        1,  1382400, 0x00000000
0,       1769,       1769,        1,  1382400, 0x00000000
0,       1770,       1770,        1,  1382400, 0x00000000
0,       1771,       1771,        1,  1382400, 0x00000000
0,       1772,       1772,        1,  1382400, 0x00000000
0,       1773,       1773,        1,  1382400, 0x00000000
0,       1774,       1774,        1,  1382400, 0x00000000
0,       1775,       1775,        1,  1382400, 0x00000000
0,       1776,       1776,        1,  1382400, 0x00000000
0,       1777,       1777,        1,  1382400, 0x00000000
0,       1778,       1778,        1,  1382400, 0x00000000
0,       1779,       1779,        1,  1382400, 0x00000000
0,       1780,       1780,        1,  1382400, 0x00000000
0,       1781,       1781,        1,  1382400, 0x00000000
0,       1782,       1782,        1,  1382400, 0x00000000
0,       1783,       1783,        1,  1382400, 0x00000000
0,       1784,       1784,        1,  1382400, 0x00000000
0,       1785,       1785,        1,  1382400, 0x00000000
0,       1786,       1786,        1,  1382400, 0x00000000
0,       1788,       1788,        1,  1382400, 0x43ef5128
0,       1788,       1788,        1,  1382400, 0x43ef5128
0,       1789,       1789,        1,  1382400, 0x43ef5128
0,       1790,       1790,        1,  1382400, 0x43ef5128
0,       1791,       1791,        1,  1382400, 0x43ef5128
0,       1792,       1792,        1,  1382400, 0x43ef5128
0,       1793,       1793,        1,  1382400, 0x43ef5128
0,       1794,       1794,        1,  1382400, 0x43ef5128
0,       1795,       1795,        1,  1382400, 0x43ef5128
0,       1796,       1796,        1,  1382400, 0x43ef5128
0,       1797,       1797,        1,  1382400, 0x43ef5128
0,       1798,       1798,        1,  1382400, 0x43ef5128
0,       1799,       1799,        1,  1382400, 0x3c3e3819
0,       1800,       1800,        1,  1382400, 0x3c3e3819
0,       1801,       1801,        1,  1382400, 0x3c3e3819
0,       1802,       1802,        1,  1382400, 0x3c3e3819
0,       1803,       1803,        1,  1382400, 0x3c3e3819
0,       1804,       1804,        1,  1382400, 0x3c3e3819
0,       1805,       1805,        1,  1382400, 0x00000000
